<?xml version="1.0" encoding="utf-8"?>
<!-- Generator: Adobe Illustrator 26.0.1, SVG Export Plug-In . SVG Version: 6.00 Build 0)  -->
<svg version="1.1" id="_843782_play_google_appstore_android_icon"
	 xmlns="http://www.w3.org/2000/svg" xmlns:xlink="http://www.w3.org/1999/xlink" x="0px" y="0px" viewBox="0 0 25.6 27"
	 style="enable-background:new 0 0 25.6 27;" xml:space="preserve">
<style type="text/css">
	.st0{fill:#693BFE;}
</style>
<path id="Path_8249" class="st0" d="M18.7,8.1L4.2,0.3C3.4,0,2.6-0.1,1.9,0.2l12.4,12.4L18.7,8.1z"/>
<path id="Path_8250" class="st0" d="M24.2,11L20,8.8l-4.7,4.7l4.7,4.7l4.2-2.2c1.4-0.7,1.9-2.4,1.2-3.8C25.1,11.7,24.7,11.3,24.2,11
	z"/>
<path id="Path_8251" class="st0" d="M0.7,0.9C0.3,1.4,0,2.1,0,2.8v21.4c0,0.7,0.3,1.4,0.7,1.9l12.6-12.6L0.7,0.9z"/>
<path id="Path_8252" class="st0" d="M1.9,26.8c0.8,0.3,1.6,0.2,2.3-0.2l14.6-7.8l-4.4-4.4L1.9,26.8z"/>
</svg>
