<?xml version="1.0" encoding="utf-8"?>
<!-- Generator: Adobe Illustrator 26.0.1, SVG Export Plug-In . SVG Version: 6.00 Build 0)  -->
<svg version="1.1" id="huawei-appgallery-seeklogo.com"
	 xmlns="http://www.w3.org/2000/svg" xmlns:xlink="http://www.w3.org/1999/xlink" x="0px" y="0px" viewBox="0 0 27 27"
	 style="enable-background:new 0 0 27 27;" xml:space="preserve">
<style type="text/css">
	.st0{fill:#693BFE;}
	.st1{fill:#D8D8D8;}
	.st2{fill:#FFFFFF;}
</style>
<path id="Rectangle_218" class="st0" d="M5,0h17c2.8,0,5,2.2,5,5v17c0,2.8-2.2,5-5,5H5c-2.8,0-5-2.2-5-5V5C0,2.2,2.2,0,5,0z"/>
<path id="Path_26240" class="st1" d="M6.6,1.7C6.2,1.7,5.8,2,5.8,2.5s0.3,0.8,0.8,0.8c0.4,0,0.8-0.3,0.8-0.8l0,0
	C7.3,2,7,1.7,6.6,1.7L6.6,1.7z M20.3,1.7c-0.4,0-0.8,0.3-0.8,0.8c0,0.4,0.3,0.8,0.8,0.8c0.4,0,0.8-0.3,0.8-0.8l0,0
	C21.1,2,20.7,1.7,20.3,1.7L20.3,1.7z"/>
<path id="Path_26241" class="st2" d="M6.6,2.3c-0.3,0-0.3,0.4-0.3,0.4c1.4,2.7,4.1,4.3,7.1,4.2c3,0.1,5.8-1.5,7.1-4.2
	c0,0,0.1-0.5-0.5-0.3c-1.4,2.4-3.9,3.9-6.6,3.9c-2.7,0-5.3-1.5-6.6-3.9C6.7,2.4,6.6,2.3,6.6,2.3L6.6,2.3z M16.3,13.2l-0.8,2.4
	l-0.8-2.4h-0.8l1.3,3.5h0.6l0.8-2.3l0.8,2.3H18l1.3-3.5h-0.8l-0.8,2.4l-0.8-2.4L16.3,13.2z M11.9,13.2l-1.6,3.5h0.7l0.3-0.7l0-0.1
	h1.6l0.3,0.7h0.8l-1.6-3.5l0,0H11.9z M23.4,13.2v3.5h0.7v-3.5H23.4z M2.8,13.2v3.5h0.7v-1.4h1.6v1.4h0.7v-3.5H5.1v1.4H3.5v-1.4
	L2.8,13.2z M9.2,13.2v2c0,0.6-0.3,0.9-0.8,0.9s-0.8-0.3-0.8-0.9v-2H6.9v2c-0.1,0.8,0.5,1.5,1.2,1.6c0.1,0,0.2,0,0.3,0
	c0.8,0.1,1.5-0.5,1.6-1.3c0-0.1,0-0.2,0-0.3v-2L9.2,13.2z M19.8,13.2v3.5h2.7v-0.6h-2v-0.9h1.3v-0.6h-1.3v-0.7h1.9v-0.6L19.8,13.2z
	 M12.2,14.1l0.5,1.2l0,0.1h-1.1l0-0.1L12.2,14.1z"/>
</svg>
